<?xml version="1.0" standalone="no"?><!DOCTYPE svg PUBLIC "-//W3C//DTD SVG 1.1//EN" "http://www.w3.org/Graphics/SVG/1.1/DTD/svg11.dtd"><svg t="1750370315262" class="icon" viewBox="0 0 1024 1024" version="1.1" xmlns="http://www.w3.org/2000/svg" p-id="1305" width="24" height="24" xmlns:xlink="http://www.w3.org/1999/xlink"><path d="M684.17 870.5H337.2c-52.27 0-94.79-42.52-94.79-94.79V225.29c0-52.27 42.52-94.79 94.79-94.79h346.97c52.27 0 94.79 42.52 94.79 94.79v550.42c0 52.27-42.52 94.79-94.79 94.79z m-346.98-705c-32.97 0-59.79 26.82-59.79 59.79v550.42c0 32.97 26.82 59.79 59.79 59.79h346.97c32.97 0 59.79-26.82 59.79-59.79V225.29c0-32.97-26.82-59.79-59.79-59.79H337.19z" fill="#444444" p-id="1306"></path><path d="M701.77 208m0 35.43l0 421.99q0 35.43-35.43 35.43l-311.33 0q-35.43 0-35.43-35.43l0-421.99q0-35.43 35.43-35.43l311.33 0q35.43 0 35.43 35.43Z" fill="#d81e06" p-id="1307" data-spm-anchor-id="a313x.collections_detail.0.i4.36883a81jWg03N" class="selected"></path><path d="M492.05 467.04c-2.06 25.04-9.48 46.27-22.26 63.68-12.78 17.41-30.66 30.57-53.64 39.49-9.26 3.6-15.35 0.51-18.27-9.26l-0.51-1.03c-2.75-9.44 0.6-15.78 10.03-19.04 18.69-7.55 32.42-17.62 41.17-30.23s12.95-27.14 12.61-43.61c0.51-9.95 5.66-14.92 15.44-14.92h1.03c10.12 0 14.92 4.98 14.41 14.92z m130.7-94.68v1.03c0 9.78-4.89 14.67-14.67 14.67H412.55c-9.78 0-14.67-4.89-14.67-14.67v-1.03c0-9.78 4.89-14.67 14.67-14.67h195.53c9.78 0 14.67 4.89 14.67 14.67z m-122.99 22.13l-37.31 42.19h109.86v-12.61c0-9.95 4.97-14.92 14.92-14.92h1.03c9.95 0 14.92 4.98 14.92 14.92v15.69c0 9.09-2.32 16-6.95 20.71-4.63 4.72-11.58 7.08-20.84 7.08H446.23c-9.95 0-17.46-1.58-22.51-4.76-5.06-3.17-7.29-7.63-6.69-13.38 0.6-5.74 4.16-12.31 10.68-19.68l48.88-55.83c6.52-7.55 13.55-7.98 21.1-1.29l0.51 0.51c7.55 6.69 8.06 13.81 1.54 21.35z m26.5-46.05v9c0 10.29-5.15 15.44-15.44 15.44h-1.03c-10.29 0-15.44-5.15-15.44-15.44v-9c0-10.29 5.15-15.44 15.44-15.44h1.03c10.29 0 15.44 5.15 15.44 15.44z m33.71 118.6v69.47H614c9.95 0 14.92 4.97 14.92 14.92v1.03c0 9.95-4.98 14.92-14.92 14.92h-57.12c-9.09 0-16-2.32-20.71-6.95-4.72-4.63-7.08-11.58-7.08-20.84v-72.55c0-9.95 4.97-14.92 14.92-14.92h1.03c9.95 0 14.92 4.98 14.92 14.92z" fill="#FFFFFF" p-id="1308"></path><path d="M510.68 780.5m-36.5 0a36.5 36.5 0 1 0 73 0 36.5 36.5 0 1 0-73 0Z" fill="#444444" p-id="1309"></path></svg>